<?xml version="1.0" encoding="UTF-8"?>
<svg width="518px" height="591px" viewBox="0 0 518 591" version="1.1" xmlns="http://www.w3.org/2000/svg" xmlns:xlink="http://www.w3.org/1999/xlink">
    <!-- Generator: Sketch 46.1 (44463) - http://www.bohemiancoding.com/sketch -->
    <title>tree</title>
    <desc>Created with Sketch.</desc>
    <defs></defs>
    <g id="Page-1" stroke="none" stroke-width="1" fill="none" fill-rule="evenodd">
        <g id="tree" fill-rule="nonzero" fill="#FDFDFD">
            <path d="M501.804,174.688 C501.804,129.916 467.828,93.091 424.252,88.568 C412.022,55.587 380.37,32.034 343.124,32.034 C326.82,32.034 311.625,36.624 298.61,44.456 C283.808,17.949 255.513,0 222.991,0 C179.874,0 144.215,31.556 137.598,72.809 C134.079,72.379 130.522,72.082 126.888,72.082 C79.066,72.082 40.29,110.849 40.29,158.68 C40.29,161.023 40.462,163.318 40.644,165.613 C16.394,180.961 0.252,207.946 0.252,238.766 C0.252,266.01 12.856,290.279 32.525,306.153 C32.439,307.712 32.286,309.26 32.286,310.839 C32.286,358.661 71.053,397.437 118.884,397.437 C133.218,397.437 146.701,393.899 158.607,387.741 C175.102,399.589 198.722,414.411 210.158,411.456 C210.158,411.456 214.413,477.361 213.495,494.096 C211.745,525.939 202.192,561.387 195.47,590.075 L299.587,590.075 C299.587,590.075 284.239,526.121 283.569,504.768 C282.9,483.414 290.244,444.093 290.244,444.093 L326.362,406.733 C340.265,416.238 357.057,421.641 375.169,421.641 C419.94,421.641 456.766,387.579 461.289,344.002 C494.269,331.772 517.822,300.034 517.822,262.788 C517.822,240.794 509.56,220.789 496.057,205.509 C499.71,195.926 501.804,185.561 501.804,174.688 Z M178.611,373.444 C185.553,366.817 191.377,359.072 195.823,350.475 L212.825,386.095 C212.816,386.096 203.569,390.179 178.611,373.444 Z M242.183,395.438 C233.385,397.035 218.401,369.944 207.767,347.921 C219.558,353.936 232.869,357.398 247.021,357.398 C250.655,357.398 254.222,357.102 257.741,356.662 C255.006,374.286 250.187,393.975 242.183,395.438 Z M279.563,412.775 C259.213,418.426 271.396,376.274 277.229,351.871 C281.447,350.303 285.53,348.458 289.412,346.267 C291.755,364.053 299.481,380.099 310.928,392.788 C301.011,401.597 289.593,409.992 279.563,412.775 Z" id="Shape"></path>
        </g>
    </g>
</svg>